<svg width="128" height="128" viewBox="0 0 128 128" fill="none" xmlns="http://www.w3.org/2000/svg">
<g filter="url(#filter0_d_2247_3734)">
<rect x="32" y="24" width="64" height="64" rx="16" fill="#1B2E4B" shape-rendering="crispEdges"/>
<path d="M49 70.25V67.25H62.5V50.4875C61.85 50.2625 61.2875 49.9125 60.8125 49.4375C60.3375 48.9625 59.9875 48.4 59.7625 47.75H55L59.5 58.25C59.5 59.5 58.9875 60.5625 57.9625 61.4375C56.9375 62.3125 55.7 62.75 54.25 62.75C52.8 62.75 51.5625 62.3125 50.5375 61.4375C49.5125 60.5625 49 59.5 49 58.25L53.5 47.75H50.5V44.75H59.7625C60.0625 43.875 60.6 43.1562 61.375 42.5938C62.15 42.0312 63.025 41.75 64 41.75C64.975 41.75 65.85 42.0312 66.625 42.5938C67.4 43.1562 67.9375 43.875 68.2375 44.75H77.5V47.75H74.5L79 58.25C79 59.5 78.4875 60.5625 77.4625 61.4375C76.4375 62.3125 75.2 62.75 73.75 62.75C72.3 62.75 71.0625 62.3125 70.0375 61.4375C69.0125 60.5625 68.5 59.5 68.5 58.25L73 47.75H68.2375C68.0125 48.4 67.6625 48.9625 67.1875 49.4375C66.7125 49.9125 66.15 50.2625 65.5 50.4875V67.25H79V70.25H49V70.25M70.9375 58.25H76.5625L73.75 51.725L70.9375 58.25V58.25M51.4375 58.25H57.0625L54.25 51.725L51.4375 58.25V58.25M64 47.75C64.425 47.75 64.7813 47.6062 65.0688 47.3187C65.3563 47.0312 65.5 46.675 65.5 46.25C65.5 45.825 65.3563 45.4688 65.0688 45.1813C64.7813 44.8938 64.425 44.75 64 44.75C63.575 44.75 63.2187 44.8938 62.9312 45.1813C62.6437 45.4688 62.5 45.825 62.5 46.25C62.5 46.675 62.6437 47.0312 62.9312 47.3187C63.2187 47.6062 63.575 47.75 64 47.75V47.75" fill="#B3EBFF"/>
</g>
<defs>
<filter id="filter0_d_2247_3734" x="0" y="0" width="128" height="128" filterUnits="userSpaceOnUse" color-interpolation-filters="sRGB">
<feFlood flood-opacity="0" result="BackgroundImageFix"/>
<feColorMatrix in="SourceAlpha" type="matrix" values="0 0 0 0 0 0 0 0 0 0 0 0 0 0 0 0 0 0 127 0" result="hardAlpha"/>
<feOffset dy="8"/>
<feGaussianBlur stdDeviation="16"/>
<feComposite in2="hardAlpha" operator="out"/>
<feColorMatrix type="matrix" values="0 0 0 0 0.105882 0 0 0 0 0.180392 0 0 0 0 0.294118 0 0 0 0.08 0"/>
<feBlend mode="normal" in2="BackgroundImageFix" result="effect1_dropShadow_2247_3734"/>
<feBlend mode="normal" in="SourceGraphic" in2="effect1_dropShadow_2247_3734" result="shape"/>
</filter>
</defs>
</svg>
